<svg width="193" height="193" fill="none" xmlns="http://www.w3.org/2000/svg"><g filter="url(#filter0_d_55_1020)"><rect x="4.518" y="1.506" width="183" height="183" rx="50.197" fill="url(#paint0_linear_55_1020)"/><g filter="url(#filter1_d_55_1020)" stroke-width="2.008"><path d="M134.282 45.537c2.795 0 4.952-.001 6.676.14 1.736.142 3.122.433 4.361 1.064a11.045 11.045 0 0 1 4.827 4.825c.631 1.24.921 2.627 1.063 4.363.141 1.724.141 3.88.141 6.675v61.072c0 2.794 0 4.951-.141 6.676-.142 1.736-.432 3.122-1.063 4.361a11.047 11.047 0 0 1-4.827 4.826c-1.238.631-2.625.922-4.361 1.064-1.724.14-3.881.139-6.676.139h-41.76v-86.17c0-1.389-.002-2.491.07-3.379.074-.898.228-1.665.586-2.367a6.025 6.025 0 0 1 2.633-2.633c.701-.357 1.468-.511 2.367-.585.887-.072 1.99-.07 3.379-.07h32.725z" fill="url(#paint1_linear_55_1020)" stroke="url(#paint2_linear_55_1020)"/><path d="M59.79 127.085a4.553 4.553 0 0 1 4.552 4.553v4.552a4.552 4.552 0 1 1-9.105 0v-4.552a4.553 4.553 0 0 1 4.552-4.553zm32.984 0v13.657h-2.32a6.829 6.829 0 0 1 0-13.657h2.32zm-47.2-16.292a4.53 4.53 0 0 1 4.53 4.53v4.598a4.53 4.53 0 0 1-9.061 0v-4.598a4.53 4.53 0 0 1 4.53-4.53zm28.41 0a4.553 4.553 0 0 1 4.551 4.553v4.552a4.552 4.552 0 1 1-9.104 0v-4.552a4.553 4.553 0 0 1 4.552-4.553zM59.788 94.457a4.553 4.553 0 0 1 4.553 4.553v4.552a4.552 4.552 0 0 1-9.105 0V99.01a4.552 4.552 0 0 1 4.552-4.553zm32.985 0v13.657h-2.32a6.828 6.828 0 0 1 0-13.657h2.32zm-47.2-16.292a4.53 4.53 0 0 1 4.53 4.53v4.598a4.53 4.53 0 0 1-9.061 0v-4.598a4.53 4.53 0 0 1 4.53-4.53zm28.41 0a4.552 4.552 0 0 1 4.551 4.553v4.552a4.552 4.552 0 1 1-9.104 0v-4.552a4.553 4.553 0 0 1 4.552-4.553zM59.788 61.829a4.552 4.552 0 0 1 4.553 4.552v4.553a4.553 4.553 0 0 1-9.105 0V66.38a4.552 4.552 0 0 1 4.552-4.552zm32.985 0v13.657h-2.32a6.829 6.829 0 0 1 0-13.657h2.32zm-47.2-16.292a4.53 4.53 0 0 1 4.53 4.53v4.598a4.53 4.53 0 0 1-9.061 0v-4.598a4.53 4.53 0 0 1 4.53-4.53zm28.41 0a4.552 4.552 0 0 1 4.551 4.553v4.553a4.552 4.552 0 0 1-9.104 0V50.09a4.553 4.553 0 0 1 4.552-4.553z" fill="url(#paint3_linear_55_1020)" stroke="url(#paint4_linear_55_1020)"/></g></g><defs><filter id="filter0_d_55_1020" x="0" y="0" width="192.035" height="192.035" filterUnits="userSpaceOnUse" color-interpolation-filters="sRGB"><feFlood flood-opacity="0" result="BackgroundImageFix"/><feColorMatrix in="SourceAlpha" values="0 0 0 0 0 0 0 0 0 0 0 0 0 0 0 0 0 0 127 0" result="hardAlpha"/><feOffset dy="3.012"/><feGaussianBlur stdDeviation="2.259"/><feComposite in2="hardAlpha" operator="out"/><feColorMatrix values="0 0 0 0 0 0 0 0 0 0 0 0 0 0 0 0 0 0 0.25 0"/><feBlend in2="BackgroundImageFix" result="effect1_dropShadow_55_1020"/><feBlend in="SourceGraphic" in2="effect1_dropShadow_55_1020" result="shape"/></filter><filter id="filter1_d_55_1020" x="14.941" y="29.474" width="162.511" height="147.41" filterUnits="userSpaceOnUse" color-interpolation-filters="sRGB"><feFlood flood-opacity="0" result="BackgroundImageFix"/><feColorMatrix in="SourceAlpha" values="0 0 0 0 0 0 0 0 0 0 0 0 0 0 0 0 0 0 127 0" result="hardAlpha"/><feOffset dy="10.039"/><feGaussianBlur stdDeviation="12.549"/><feComposite in2="hardAlpha" operator="out"/><feColorMatrix values="0 0 0 0 0.437826 0 0 0 0 0.142722 0 0 0 0 0.0589058 0 0 0 0.12 0"/><feBlend in2="BackgroundImageFix" result="effect1_dropShadow_55_1020"/><feBlend in="SourceGraphic" in2="effect1_dropShadow_55_1020" result="shape"/></filter><linearGradient id="paint0_linear_55_1020" x1="96.018" y1="1.506" x2="96.018" y2="184.506" gradientUnits="userSpaceOnUse"><stop stop-color="#FA7C4C"/><stop offset="1" stop-color="#F95B1F"/></linearGradient><linearGradient id="paint1_linear_55_1020" x1="121.936" y1="46.541" x2="121.936" y2="139.739" gradientUnits="userSpaceOnUse"><stop stop-color="#fff"/><stop offset="1" stop-color="#FCEEE8"/></linearGradient><linearGradient id="paint2_linear_55_1020" x1="121.936" y1="46.541" x2="121.936" y2="139.739" gradientUnits="userSpaceOnUse"><stop stop-color="#FFFEFE"/><stop offset="1" stop-color="#FCEEE8"/></linearGradient><linearGradient id="paint3_linear_55_1020" x1="66.909" y1="46.541" x2="66.909" y2="139.739" gradientUnits="userSpaceOnUse"><stop stop-color="#fff"/><stop offset="1" stop-color="#FCEEE8"/></linearGradient><linearGradient id="paint4_linear_55_1020" x1="66.909" y1="46.541" x2="66.909" y2="139.739" gradientUnits="userSpaceOnUse"><stop stop-color="#fff"/><stop offset="1" stop-color="#FCEDE8"/></linearGradient></defs></svg>